<svg xmlns="http://www.w3.org/2000/svg" xmlns:xlink="http://www.w3.org/1999/xlink" width="540" height="400.607" viewBox="0 0 540 400.607">
  <defs>
    <linearGradient id="linear-gradient" x1="0.5" x2="0.5" y2="1" gradientUnits="objectBoundingBox">
      <stop offset="0" stop-color="#2987c4"/>
      <stop offset="1" stop-color="#154462"/>
    </linearGradient>
    <linearGradient id="linear-gradient-4" y1="1" y2="0" xlink:href="#linear-gradient"/>
  </defs>
  <g id="Group_615" data-name="Group 615" transform="translate(-927.631 -542.783)">
    <g id="Group_596" data-name="Group 596" transform="translate(927.631 542.783)">
      <g id="Group_249" data-name="Group 249" transform="translate(0 35.765)">
        <g id="Group_199" data-name="Group 199" transform="translate(0 0)">
          <g id="Group_193" data-name="Group 193" transform="translate(102.792)">
            <path id="Path_212" data-name="Path 212" d="M192.367,169.956l-23.583,20.031s.425-20.683-4.849-28.969l7.548-14.374Z" transform="translate(-159.151 -110.391)" fill="#fff"/>
            <path id="Path_213" data-name="Path 213" d="M171.483,146.645l-7.548,14.374c1.983,3.113,3.157,7.973,3.854,12.833,6.176-1.762,13.15,5.81,15.2,4.074l4.913-4.173a14.273,14.273,0,0,1,5.815-2.979l4.242-1.041Z" transform="translate(-159.151 -110.391)" fill="#404258"/>
            <path id="Path_214" data-name="Path 214" d="M202.283,148.9c4.048,8.163,2.4,32.482-7.529,36.484s-20.519-13.737-21.589-12.585c-1.062,1.137-4.272.7-6.53-4.826s-4.518-17.219,13.079-24.608S202.283,148.9,202.283,148.9Z" transform="translate(-155.95 -126.044)" fill="#fff"/>
            <path id="Path_215" data-name="Path 215" d="M182.3,175.451h3.776s1.416-9.418,10.384-9.418c0,0-5.192-6.279-2.359-9.178s15.338,7.244,18.171,1.209,11.327-13.527,3.068-19.321-27.847,6.035-38.936,5.795-16.046,11.593-12.744,20.527a26.878,26.878,0,0,1,.235,17.147l3.541,5.558,5.9-8.7s-3.314-9.46.708-11.833C179.468,164.038,182.3,175.451,182.3,175.451Z" transform="translate(-162.651 -137.141)" fill="#404258"/>
          </g>
          <g id="Group_195" data-name="Group 195" transform="matrix(0.875, -0.485, 0.485, 0.875, 0, 102.142)">
            <path id="Path_216" data-name="Path 216" d="M104.909,9.143S105.464.365,110.34,0s16.425,20.406,10.964,57.31-50.713,56.936-51.656,69.5S65.67,144.97,65.67,144.97L0,146.371l.15-15.387C.228,123,6.595,102.136,24.462,82.4S58.461,9.6,104.909,9.143Z" transform="translate(0 0)" fill="#78b07e"/>
            <path id="Path_217" data-name="Path 217" d="M82.229,13.278C79.939,12.491,80,8.546,77.749.688L64.091,8.881S38.366,52.405,15.082,80.1C.733,97.158.491,107.987,0,124.833l30.739-1.338s2.876-5.3,3.82-17.869,46.194-32.6,51.656-69.5C88.4,21.391,87.843,9.281,86.109.01L86.066,0S88,15.257,82.229,13.278Z" transform="translate(35.088 21.192)" fill="#446e4a"/>
            <g id="Group_194" data-name="Group 194" transform="translate(66.882 22.074)">
              <path id="Path_218" data-name="Path 218" d="M43.353,69.554c-6.473-3.892-10.3-12.1-15.51-12.045,0,0,6.915-7.981,10.322-23.508S43.36,2.3,28.4.143-.776,20.212.033,70.643c0,0,.791,21.054,63.162,20.47.043-4.45.107-9.492.173-14.374C57.657,75.169,47.808,72.232,43.353,69.554Z" transform="translate(0 0)" fill="#78b07e"/>
              <path id="Path_219" data-name="Path 219" d="M19.312,1,4.485,1.144S2.747.715.158,0C.1,4.36.043,8.842,0,12.919l1.445,1.445,22.406-.221a2.735,2.735,0,0,0,2.68-2.712l.064-6.548S25.665.935,19.312,1Z" transform="translate(63.209 76.739)" fill="#e3dddd"/>
            </g>
          </g>
        </g>
        <g id="Group_248" data-name="Group 248" transform="matrix(0.999, -0.035, 0.035, 0.999, 13.327, 192.266)">
          <path id="Path_253" data-name="Path 253" d="M47.139,0c3.443,13.059,4.279,35,2.1,46.558S41.3,91.943,40.852,94.609s-6.654,10.666-7.1,12.443-12.868,43.931-12.868,43.931,12.617,13.392,16.069,14.28,12.284,4,12.284,4v3.42H.84s-4.349-9.7,6.741-22.141c0,0,3.74-13.332,2.092-34.663s8.832-27.549,8.832-27.549-.192-45.674-4.271-63.1V1.06Z" transform="translate(65.376 0)" fill="url(#linear-gradient)"/>
          <path id="Path_254" data-name="Path 254" d="M6.653,0,25.278,4.431c-1.7,13.916-7.936,63.638-8.582,67.853S6.23,81.81,6.453,105.251c.132,13.781-4.361,25.056-6.453,30.7,0,0,3.74-13.332,2.091-34.663s8.833-27.549,8.833-27.549-.192-45.674-4.271-63.1Z" transform="translate(72.958 14.586)" fill="url(#linear-gradient)"/>
          <path id="Path_255" data-name="Path 255" d="M103.076,0l4.738,10.813c0,4.937-18.158,9.733-23.933,20.219S58.97,82.689,57.641,84.41s-5.942,5.6-8.146,7.748S25.173,135.637,22.91,140.37s7.619,21.523,7.619,21.523l7.566,6.457v4.306h-26.6L.018,147.257s-.862-8.608,9.453-11.62c0,0,9.024-19.371,9.883-30.564s3.534-19.447,15.091-25.006L45.836,1.033Z" transform="translate(0 0.026)" fill="url(#linear-gradient)"/>
        </g>
      </g>
      <g id="Group_253" data-name="Group 253" transform="translate(331.998 35.765)">
        <g id="Group_199-2" data-name="Group 199" transform="translate(0)">
          <g id="Group_193-2" data-name="Group 193" transform="translate(49.002)">
            <path id="Path_212-2" data-name="Path 212" d="M163.935,169.956l23.583,20.031s-.425-20.683,4.849-28.969l-7.548-14.374Z" transform="translate(-140.944 -110.391)" fill="#fff"/>
            <path id="Path_213-2" data-name="Path 213" d="M190.407,146.645l7.548,14.374c-1.983,3.113-3.157,7.973-3.854,12.833-6.176-1.762-13.15,5.81-15.2,4.074l-4.913-4.173a14.273,14.273,0,0,0-5.815-2.979l-4.242-1.041Z" transform="translate(-146.531 -110.391)" fill="#404258"/>
            <path id="Path_214-2" data-name="Path 214" d="M167.162,148.9c-4.048,8.163-2.4,32.482,7.529,36.484S195.21,171.647,196.28,172.8c1.062,1.137,4.272.7,6.53-4.826s4.518-17.219-13.079-24.608S167.162,148.9,167.162,148.9Z" transform="translate(-157.287 -126.044)" fill="#fff"/>
            <path id="Path_215-2" data-name="Path 215" d="M199.21,175.451h-3.776s-1.416-9.418-10.384-9.418c0,0,5.192-6.279,2.359-9.178s-15.338,7.244-18.171,1.209-11.327-13.527-3.068-19.321,27.847,6.035,38.936,5.795,16.046,11.593,12.744,20.527a26.878,26.878,0,0,0-.235,17.147l-3.541,5.558-5.9-8.7s3.314-9.46-.708-11.833C202.043,164.038,199.21,175.451,199.21,175.451Z" transform="translate(-162.651 -137.141)" fill="#404258"/>
          </g>
          <g id="Group_195-2" data-name="Group 195" transform="matrix(-0.875, -0.485, 0.485, -0.875, 137.04, 230.161)">
            <path id="Path_216-2" data-name="Path 216" d="M104.909,137.229s.555,8.778,5.431,9.138,16.425-20.406,10.964-57.31-50.713-56.936-51.656-69.5S65.67,1.4,65.67,1.4L0,0,.15,15.387c.078,7.986,6.444,28.849,24.312,48.581S58.461,136.77,104.909,137.229Z" transform="translate(0 0)" fill="#78b07e"/>
            <path id="Path_217-2" data-name="Path 217" d="M82.229,111.555c-2.291.787-2.23,4.733-4.481,12.59l-13.657-8.192S38.366,72.428,15.082,44.737C.733,27.675.491,16.846,0,0L30.739,1.338s2.876,5.3,3.82,17.869,46.194,32.6,51.656,69.5c2.18,14.732,1.628,26.841-.106,36.112l-.043.01S88,109.576,82.229,111.555Z" transform="translate(35.088 0.347)" fill="#446e4a"/>
            <g id="Group_194-2" data-name="Group 194" transform="translate(66.882 33.173)">
              <path id="Path_218-2" data-name="Path 218" d="M43.353,21.571c-6.473,3.892-10.3,12.1-15.51,12.045,0,0,6.915,7.981,10.322,23.508s5.2,31.7-9.762,33.857S-.776,70.913.033,20.482c0,0,.791-21.054,63.162-20.47.043,4.45.107,9.492.173,14.374C57.657,15.956,47.808,18.893,43.353,21.571Z" transform="translate(0 0)" fill="#78b07e"/>
              <path id="Path_219-2" data-name="Path 219" d="M19.312,13.366,4.485,13.22s-1.738.429-4.327,1.144C.1,10,.043,5.521,0,1.445L1.445,0,23.851.221a2.735,2.735,0,0,1,2.68,2.712l.064,6.548S25.665,13.429,19.312,13.366Z" transform="translate(63.209 0.023)" fill="#e3dddd"/>
            </g>
          </g>
        </g>
        <g id="Group_248-2" data-name="Group 248" transform="matrix(-0.999, -0.035, 0.035, -0.999, 188.649, 364.842)">
          <path id="Path_253-2" data-name="Path 253" d="M47.139,172.682c3.443-13.059,4.279-35,2.1-46.558S41.3,80.739,40.852,78.073,34.2,67.407,33.756,65.63,20.888,21.7,20.888,21.7,33.505,8.307,36.957,7.418s12.284-4,12.284-4V0H.84S-3.509,9.7,7.581,22.141c0,0,3.74,13.332,2.092,34.663s8.832,27.549,8.832,27.549-.192,45.674-4.271,63.1v24.167Z" transform="translate(65.376 0)" fill="url(#linear-gradient-4)"/>
          <path id="Path_254-2" data-name="Path 254" d="M6.653,135.954l18.624-4.432c-1.7-13.916-7.936-63.638-8.582-67.853S6.23,54.144,6.453,30.7C6.584,16.922,2.091,5.647,0,0,0,0,3.74,13.332,2.091,34.663s8.833,27.549,8.833,27.549-.192,45.674-4.271,63.1Z" transform="translate(72.958 22.141)" fill="url(#linear-gradient-4)"/>
          <path id="Path_255-2" data-name="Path 255" d="M103.076,172.656l4.738-10.813c0-4.937-18.158-9.733-23.933-20.219S58.97,89.966,57.641,88.245s-5.942-5.6-8.146-7.748S25.173,37.018,22.91,32.286s7.619-21.523,7.619-21.523l7.566-6.457V0h-26.6L.018,25.4s-.862,8.608,9.453,11.62c0,0,9.024,19.371,9.883,30.564S22.888,87.03,34.445,92.589l11.391,79.034Z" transform="translate(0 0)" fill="url(#linear-gradient-4)"/>
        </g>
      </g>
      <g id="layer2" transform="translate(182.321 0)">
        <rect id="rect4535" width="175.8" height="324.13" rx="6.614" transform="translate(0)" fill="#404258"/>
        <rect id="rect4537" width="148.941" height="241.114" rx="0.366" transform="translate(13.392 26.248)" fill="#6b728e"/>
        <ellipse id="path4539" cx="12.758" cy="12.439" rx="12.758" ry="12.439" transform="translate(75.024 286.041)" fill="#6b728e" stroke="#f9f9f9" stroke-linecap="round" stroke-linejoin="round" stroke-width="1.094"/>
      </g>
      <g id="layer1" transform="translate(233.106 56.718)">
        <path id="path3882" d="M318.245,470.5a31.027,31.027,0,0,0-20.07,11.323h8.771c2.828-5.111,6.685-9.283,11.3-10.891.26-.094,1.615-.637,0-.432Zm8.3.426c4.558,1.58,8.379,5.664,11.2,10.685.127.218.141.212.413.212h8.085c.245,0,.269-.131.208-.226a31.023,31.023,0,0,0-19.907-11.1c-1.2-.116-.868.152,0,.429Zm-3.355.14a.374.374,0,0,0-.368.38V481.4c.011.287.122.4.416.414H336.5c.349,0,.2-.3.167-.4-2.584-4.479-6.138-8.338-11.106-9.934a9.727,9.727,0,0,0-2.332-.415.275.275,0,0,0-.046,0Zm-1.612.017c-6.162.529-10.674,5.471-13.668,10.74h13.685c.292-.011.385-.147.4-.427v-9.95a.358.358,0,0,0-.363-.363Zm-24.35,11.982a30.937,30.937,0,0,0-5,10.778c-.123.4.027.418.328.418h9.538c.44,0,.358-.117.418-.408a44.593,44.593,0,0,1,3.787-10.794c.339-.458.073-.411-.06-.407h-8.478c-.29-.005-.388.211-.536.412Zm9.991.012q-.461.886-.864,1.765a40.294,40.294,0,0,0-3.012,9c-.122.462-.017.414.206.421h18.031c.327-.006.423-.067.412-.417V483.062a.372.372,0,0,0-.412-.415H307.891c-.431,0-.506.1-.676.424Zm15.6,0v10.779c0,.365.13.409.413.41h18.112c.169-.007.243-.062.162-.416a32.75,32.75,0,0,0-1.249-4.378,48.948,48.948,0,0,0-2.676-6.4c-.171-.352-.21-.411-.473-.411H323.238a.382.382,0,0,0-.421.419Zm15.7,0a44.6,44.6,0,0,1,3.789,10.814c.077.391.161.371.346.379h9.776c.3,0,.236-.088.158-.414a30.939,30.939,0,0,0-5-10.781c-.241-.331-.322-.408-.521-.412h-8.485c-.331,0-.129.328-.063.416Zm-46.661,12.43a31.434,31.434,0,0,0,0,11.616c.077.354.183.406.288.414h9.954c.161-.008.142-.2.1-.431a32.455,32.455,0,0,1,0-11.6c.129-.418.024-.416-.1-.408h-9.961C291.9,495.082,291.87,495.351,291.852,495.493Zm11.192,0a36.548,36.548,0,0,0-.054,11.606c.028.415.1.423.341.424h18.253c.306-.01.415-.167.4-.415V495.5c-.012-.361-.115-.409-.412-.415H303.338c-.229.009-.249.141-.294.408Zm19.774.014V507.1c.014.269.118.449.427.422h18.239c.281-.012.227-.174.267-.414A36.422,36.422,0,0,0,341.8,495.5c-.061-.352-.109-.414-.319-.415H323.231c-.348,0-.411.112-.413.423Zm19.791-.008a32.456,32.456,0,0,1,0,11.6c-.134.412-.048.418.1.422h9.954c.234,0,.238-.162.286-.407a31.426,31.426,0,0,0,0-11.624c-.129-.514-.151-.408-.286-.407h-9.946c-.214,0-.155.177-.113.414Zm-50.384,13.263a31,31,0,0,0,5.021,10.815.941.941,0,0,0,.7.383H306c.37.014.435-.024.3-.409a44.6,44.6,0,0,1-3.786-10.789c-.057-.352-.161-.4-.4-.41h-9.546c-.313.006-.425.044-.337.411Zm11.088,0a32.72,32.72,0,0,0,1.238,4.373,49.373,49.373,0,0,0,2.68,6.4c.166.289.208.307.562.427H321.58c.316.026.419-.067.41-.445V508.761c-.011-.2-.051-.385-.412-.41H303.532c-.283.01-.274.138-.218.408Zm19.505,0v10.781c-.029.312.131.437.434.417H336.9a.635.635,0,0,0,.655-.4,41.018,41.018,0,0,0,3.9-10.8c.119-.452.007-.4-.21-.406H323.231c-.278.005-.431.128-.413.41Zm19.478,0a44.615,44.615,0,0,1-3.736,10.692c-.259.4-.191.509.318.507h7.993a.79.79,0,0,0,.753-.468,31,31,0,0,0,4.957-10.721c.14-.5,0-.42-.164-.419h-9.79c-.319.008-.273.135-.33.409Zm-43.746,12.47a31.036,31.036,0,0,0,19.722,10.885c1.61.164,1.887.038-.01-.429-4.493-1.558-8.27-5.549-11.078-10.472a.718.718,0,0,0-.583-.425h-7.8c-.364.023-.411.064-.253.441Zm9.588-.03c2.576,4.461,6.123,8.307,11.1,9.927a10.43,10.43,0,0,0,2.323.42c.377-.024.356-.08.424-.39v-9.943q.014-.409-.415-.432l-13.256.005c-.381.054-.4.053-.178.412Zm14.678,0v9.956c-.013.348.076.406.434.381,4.916-.426,9.43-4.108,12.081-8.25.434-.646.843-1.305,1.238-1.976.144-.232.224-.5-.389-.524H323.237c-.259-.015-.419.1-.42.413Zm14.814-.007c-2.81,4.934-6.594,8.935-11.1,10.494-1.014.27-2.126.695.008.425a31.033,31.033,0,0,0,19.5-10.633c.385-.524.4-.678,0-.692h-7.661c-.527.03-.625.16-.748.406Z" transform="translate(-285.289 -470.45)" fill="#f0f0f0"/>
        <path id="path4024" d="M342.6,511.22c.4.88.753,1.769,1.114,2.643,0,0,.012,0,.013,0a7.818,7.818,0,0,1,4.482,1.658c.487,1.523-1.3,3.04-2.384,4.016-11.959,8.571-26.449,13-40.836,15.663-7.92,1.091-16.222,3.019-24.02.4a1.48,1.48,0,0,1-1.244-2.436,33.576,33.576,0,0,1,2.734-2.539,12.738,12.738,0,0,1-.415-2.993c-3.786,2.771-5.735,5.428-5.157,7.566,1.5,5.525,19.279,5.512,39.722-.026s35.8-14.5,34.306-20.029c-.581-2.145-3.625-3.449-8.317-3.926Z" transform="translate(-276.786 -494.317)" fill="#404258"/>
      </g>
      <text id="_" data-name="$" transform="matrix(0.951, 0.309, -0.309, 0.951, 312.217, 57.639)" fill="#f0f0f0" font-size="24" font-family="Roboto-Regular, Roboto"><tspan x="0" y="0">$</tspan></text>
      <text id="_2" data-name="₺" transform="translate(213.255 115.186) rotate(-18)" fill="#f0f0f0" font-size="18" font-family="Roboto-Regular, Roboto"><tspan x="0" y="0">₺</tspan></text>
      <text id="_3" data-name="€" transform="translate(322.551 123.19) rotate(20)" fill="#f0f0f0" font-size="24" font-family="Roboto-Regular, Roboto"><tspan x="0" y="0">€</tspan></text>
      <text id="_4" data-name="£" transform="translate(227.826 39.849) rotate(20)" fill="#f0f0f0" font-size="19" font-family="Roboto-Regular, Roboto"><tspan x="0" y="0">£</tspan></text>
      <g id="Group_603" data-name="Group 603" transform="translate(207.302 183.778)">
        <g id="Rectangle_164" data-name="Rectangle 164" fill="#fff" stroke="#707070" stroke-width="1">
          <rect width="125.837" height="10.272" rx="5.136" stroke="none"/>
          <rect x="0.5" y="0.5" width="124.837" height="9.272" rx="4.636" fill="none"/>
        </g>
        <g id="Rectangle_165" data-name="Rectangle 165" transform="translate(0 23.113)" fill="#fff" stroke="#707070" stroke-width="1">
          <rect width="125.837" height="10.272" rx="5.136" stroke="none"/>
          <rect x="0.5" y="0.5" width="124.837" height="9.272" rx="4.636" fill="none"/>
        </g>
        <g id="Rectangle_166" data-name="Rectangle 166" transform="translate(0 46.226)" fill="#fff" stroke="#707070" stroke-width="1">
          <rect width="125.837" height="10.272" rx="5.136" stroke="none"/>
          <rect x="0.5" y="0.5" width="124.837" height="9.272" rx="4.636" fill="none"/>
        </g>
      </g>
    </g>
    <path id="paper-plane-3" d="M37.245,20.95l-9.311,3.492-4.656,12.8-6.66-8.892L4.656,32.589,0,0ZM20.557,26.63l2.132,5.785,2.528-7.258L5.659,7.393Z" transform="translate(1223.496 672.397)" fill="#f0f0f0"/>
    <path id="paper-plane-3-2" data-name="paper-plane-3" d="M37.245,16.295,27.934,12.8,23.278,0l-6.66,8.892L4.656,4.656,0,37.245Zm-16.688-5.68L22.689,4.83l2.528,7.258L5.659,29.852Z" transform="translate(1136.343 672.397)" fill="#f0f0f0"/>
  </g>
</svg>
